<svg width="300" height="34" viewBox="0 0 300 34" fill="none" xmlns="http://www.w3.org/2000/svg">
<path d="M13.168 33.836C11.1147 33.836 9.31067 33.484 7.756 32.78C6.23067 32.076 4.95467 31.1373 3.928 29.964C2.93067 28.7613 2.168 27.4267 1.64 25.96C1.14133 24.4933 0.892 22.9973 0.892 21.472V20.636C0.892 19.052 1.14133 17.5267 1.64 16.06C2.168 14.564 2.93067 13.244 3.928 12.1C4.95467 10.9267 6.216 10.0027 7.712 9.328C9.208 8.624 10.9387 8.272 12.904 8.272C15.4853 8.272 17.6413 8.844 19.372 9.988C21.132 11.1027 22.452 12.584 23.332 14.432C24.212 16.2507 24.652 18.216 24.652 20.328V22.528H3.488V18.788H20.824L18.932 20.636C18.932 19.1107 18.712 17.8053 18.272 16.72C17.832 15.6347 17.1573 14.7987 16.248 14.212C15.368 13.6253 14.2533 13.332 12.904 13.332C11.5547 13.332 10.4107 13.64 9.472 14.256C8.53333 14.872 7.81467 15.7667 7.316 16.94C6.84667 18.084 6.612 19.4627 6.612 21.076C6.612 22.572 6.84667 23.9067 7.316 25.08C7.78533 26.224 8.504 27.1333 9.472 27.808C10.44 28.4533 11.672 28.776 13.168 28.776C14.664 28.776 15.8813 28.4827 16.82 27.896C17.7587 27.28 18.36 26.532 18.624 25.652H24.256C23.904 27.2947 23.2293 28.732 22.232 29.964C21.2347 31.196 19.9587 32.1493 18.404 32.824C16.8787 33.4987 15.1333 33.836 13.168 33.836Z" fill="white"/>
<path d="M40 33L55 9L70 33M45 26H65M80 33V9L95 26L110 9V33" fill="white"/>
<path d="M120 33V9H135C140 9 144 10 147 12C150 14 151.5 17 151.5 21C151.5 25 150 28 147 30C144 32 140 33 135 33H120ZM130 25H134C136 25 137.5 24.5 138.5 23.5C139.5 22.5 140 21 140 19C140 17 139.5 15.5 138.5 14.5C137.5 13.5 136 13 134 13H130V25Z" fill="white"/>
<path d="M160 33V9H190V15H170V18H185V24H170V27H190V33H160Z" fill="white"/>
<path d="M200 33V9H210L220 20L230 9H240V33H230V20L220 31L210 20V33H200Z" fill="white"/>
<path d="M250 33V9H280V15H260V18H275V24H260V27H280V33H250Z" fill="white"/>
<path d="M290 33V28H295V33H290Z" fill="#F13024"/>
</svg>
